<svg width="153" height="40" viewBox="0 0 153 40" fill="none" xmlns="http://www.w3.org/2000/svg">
<g clip-path="url(#clip0_14_182)">
<path d="M142.491 16.8779L146.121 25.7879L149.487 16.8779H152.281L144.955 34.7639H142.161L144.779 28.7139L139.675 16.8779H142.491Z" fill="#729AFF"/>
<path d="M138.026 12.72V29H135.518V12.72H138.026Z" fill="#729AFF"/>
<path d="M127.624 16.7239C128.68 16.7239 129.619 16.9732 130.44 17.4719C131.276 17.9705 131.929 18.6892 132.398 19.6279C132.868 20.5665 133.102 21.6665 133.102 22.9279C133.102 24.2039 132.868 25.3112 132.398 26.2499C131.929 27.1885 131.276 27.9072 130.44 28.4059C129.619 28.9045 128.68 29.1539 127.624 29.1539C126.524 29.1539 125.586 28.8825 124.808 28.3399C124.031 27.7972 123.488 27.0785 123.18 26.1839V34.7639H120.672V16.8779H123.18V19.6939C123.488 18.7992 124.031 18.0805 124.808 17.5379C125.586 16.9952 126.524 16.7239 127.624 16.7239ZM126.854 18.9239C126.15 18.9239 125.52 19.0925 124.962 19.4299C124.405 19.7525 123.965 20.2219 123.642 20.8379C123.32 21.4392 123.158 22.1359 123.158 22.9279C123.158 23.7345 123.32 24.4385 123.642 25.0399C123.965 25.6412 124.405 26.1105 124.962 26.4479C125.52 26.7705 126.15 26.9319 126.854 26.9319C127.969 26.9319 128.864 26.5799 129.538 25.8759C130.213 25.1572 130.55 24.1745 130.55 22.9279C130.55 21.6959 130.213 20.7205 129.538 20.0019C128.864 19.2832 127.969 18.9239 126.854 18.9239Z" fill="#729AFF"/>
<path d="M113.014 16.6799C114.451 16.6799 115.595 17.1346 116.446 18.0439C117.311 18.9533 117.744 20.2513 117.744 21.9379V28.9999H115.236V22.2019C115.236 21.1459 114.972 20.3319 114.444 19.7599C113.916 19.1733 113.19 18.8799 112.266 18.8799C111.283 18.8799 110.499 19.1953 109.912 19.8259C109.34 20.4419 109.054 21.3513 109.054 22.5539V28.9999H106.546V22.2019C106.546 21.1459 106.282 20.3319 105.754 19.7599C105.226 19.1733 104.5 18.8799 103.576 18.8799C102.593 18.8799 101.809 19.1953 101.222 19.8259C100.65 20.4419 100.364 21.3513 100.364 22.5539V28.9999H97.856V16.8779H100.364V19.4079C100.672 18.5279 101.185 17.8533 101.904 17.3839C102.623 16.9146 103.466 16.6799 104.434 16.6799C105.446 16.6799 106.319 16.9293 107.052 17.4279C107.8 17.9266 108.343 18.6453 108.68 19.5839C109.032 18.6746 109.597 17.9633 110.374 17.4499C111.151 16.9366 112.031 16.6799 113.014 16.6799Z" fill="#729AFF"/>
<path d="M92.1218 25.634H85.5658L84.3778 29H81.6938L87.4138 13.71H90.2958L95.9938 29H93.3099L92.1218 25.634ZM91.4178 23.698L88.8438 16.438L86.2698 23.698H91.4178Z" fill="#729AFF"/>
<path d="M72.8762 16.724C73.9762 16.724 74.9149 16.9953 75.6922 17.538C76.4695 18.0806 77.0122 18.7993 77.3202 19.694V12.72H79.8502V29H77.3202V26.184C77.0122 27.0786 76.4695 27.7973 75.6922 28.34C74.9149 28.8826 73.9762 29.154 72.8762 29.154C71.8202 29.154 70.8742 28.9046 70.0382 28.406C69.2169 27.9073 68.5715 27.1886 68.1022 26.25C67.6329 25.3113 67.3982 24.204 67.3982 22.928C67.3982 21.6666 67.6329 20.5666 68.1022 19.628C68.5715 18.6893 69.2169 17.9706 70.0382 17.472C70.8742 16.9733 71.8202 16.724 72.8762 16.724ZM73.6462 18.924C72.5315 18.924 71.6369 19.2833 70.9622 20.002C70.3022 20.706 69.9722 21.6813 69.9722 22.928C69.9722 24.1746 70.3022 25.1573 70.9622 25.876C71.6369 26.58 72.5315 26.932 73.6462 26.932C74.3502 26.932 74.9809 26.7706 75.5382 26.448C76.0955 26.1106 76.5355 25.6413 76.8582 25.04C77.1809 24.4386 77.3422 23.7346 77.3422 22.928C77.3422 22.136 77.1809 21.4393 76.8582 20.838C76.5355 20.222 76.0955 19.7526 75.5382 19.43C74.9809 19.0926 74.3502 18.924 73.6462 18.924Z" fill="#729AFF"/>
<path d="M62.2801 25.634H55.7241L54.5361 29H51.8521L57.5721 13.71H60.4541L66.1521 29H63.4681L62.2801 25.634ZM61.5761 23.698L59.0021 16.438L56.4281 23.698H61.5761Z" fill="#729AFF"/>
<rect x="0.5" y="21.3977" width="5.3494" height="13.3735" rx="2.6747" fill="#729AFF"/>
<rect x="33.4879" y="21.3977" width="5.3494" height="13.3735" rx="2.6747" fill="#729AFF"/>
<rect x="8.96985" y="10.6987" width="5.3494" height="16.9398" rx="2.6747" fill="#729AFF"/>
<rect x="8.96985" y="28.9758" width="5.3494" height="8.0241" rx="2.6747" fill="#729AFF"/>
<rect x="25.0181" y="10.6987" width="5.3494" height="16.9398" rx="2.6747" fill="#729AFF"/>
<rect x="25.0181" y="28.9758" width="5.3494" height="8.0241" rx="2.6747" fill="#729AFF"/>
<rect x="16.994" width="5.3494" height="34.7711" rx="2.6747" fill="#729AFF"/>
</g>
<defs>
<clipPath id="clip0_14_182">
<rect width="152" height="40" fill="white" transform="translate(0.5)"/>
</clipPath>
</defs>
</svg>
